<svg id="svg" version="1.1" xmlns="http://www.w3.org/2000/svg" xmlns:xlink="http://www.w3.org/1999/xlink" width="400" height="380.45454545454544" viewBox="0, 0, 400,380.45454545454544"><g id="svgg"><path id="path0" d="M193.720 18.888 C 136.689 21.388,88.886 61.841,78.421 116.461 C 74.823 135.239,75.783 162.760,80.685 181.351 C 89.811 215.962,107.611 246.230,156.451 310.181 C 158.609 313.007,162.762 318.487,165.679 322.360 C 173.652 332.942,180.724 341.214,191.859 352.981 C 193.452 354.665,195.849 357.267,197.187 358.765 C 198.525 360.263,199.791 361.500,200.000 361.513 C 200.331 361.534,205.152 356.095,209.895 350.349 C 210.733 349.335,214.335 345.063,217.900 340.856 C 225.146 332.305,226.722 330.346,232.932 322.169 C 258.675 288.271,268.306 274.543,284.866 248.145 C 306.181 214.163,320.753 176.366,323.093 148.986 C 326.267 111.842,314.945 82.995,286.055 54.615 C 273.601 42.381,256.717 31.509,243.455 27.183 C 242.371 26.830,241.313 26.408,241.104 26.245 C 240.894 26.083,239.225 25.517,237.394 24.987 C 235.563 24.457,233.933 23.942,233.772 23.842 C 230.021 21.524,204.789 18.403,193.720 18.888 M205.193 84.504 C 253.254 89.301,276.233 147.761,245.069 185.953 C 229.106 205.514,199.301 213.336,177.355 203.722 C 171.706 201.248,168.710 199.574,163.019 195.712 C 158.936 192.941,150.533 183.582,147.563 178.497 C 121.672 134.176,155.188 79.513,205.193 84.504 " stroke="none" fill="#048604" fill-rule="evenodd"></path><path id="path1" d="M0.000 190.295 L 0.000 380.590 200.000 380.590 L 400.000 380.590 400.000 190.295 L 400.000 0.000 200.000 0.000 L 0.000 0.000 0.000 190.295 M214.459 19.412 C 245.998 23.797,271.459 37.384,292.731 61.182 C 295.025 63.748,297.344 66.317,297.886 66.891 C 299.752 68.870,305.768 76.978,307.915 80.408 C 325.084 107.829,328.533 139.468,318.339 176.023 C 314.139 191.084,308.971 203.953,299.921 221.884 C 297.649 226.384,295.105 231.265,294.267 232.731 C 293.429 234.196,291.939 236.851,290.955 238.630 C 288.959 242.243,285.051 248.662,279.882 256.820 C 275.247 264.134,266.335 277.429,261.916 283.622 C 260.726 285.290,259.496 287.022,259.182 287.472 C 257.680 289.624,245.939 305.607,243.938 308.223 C 243.194 309.195,240.378 312.902,237.681 316.461 C 224.758 333.508,225.291 332.838,216.942 342.566 C 211.906 348.434,210.639 349.927,209.895 350.876 C 209.477 351.410,208.877 352.118,208.563 352.449 C 208.249 352.779,206.280 355.126,204.186 357.663 C 199.902 362.857,200.002 362.799,198.572 360.913 C 197.995 360.154,196.283 358.225,194.766 356.627 C 189.066 350.622,183.434 344.472,179.414 339.862 C 172.537 331.976,171.492 330.690,165.342 322.550 C 163.445 320.038,160.533 316.219,158.872 314.062 C 157.211 311.906,155.509 309.655,155.090 309.061 C 154.405 308.088,146.405 297.511,143.848 294.196 C 133.381 280.628,115.931 255.658,109.075 244.436 C 108.467 243.441,107.417 241.770,106.743 240.723 C 106.068 239.676,104.750 237.450,103.814 235.775 C 102.877 234.101,101.394 231.483,100.518 229.958 C 98.582 226.589,92.232 214.124,90.976 211.227 C 90.477 210.076,89.655 208.192,89.149 207.041 C 73.121 170.562,71.263 127.621,84.293 94.767 C 90.874 78.170,103.452 60.471,116.614 49.286 C 117.846 48.240,119.471 46.853,120.226 46.205 C 136.637 32.117,163.084 21.253,186.299 19.063 C 191.096 18.610,210.414 18.850,214.459 19.412 M193.911 84.720 C 193.283 84.813,190.971 85.158,188.773 85.487 C 156.894 90.260,133.819 123.869,139.812 156.800 C 147.162 197.191,190.092 219.218,225.756 200.899 C 268.851 178.762,270.373 117.046,228.432 92.398 C 218.972 86.839,203.233 83.338,193.911 84.720 " stroke="none" fill="#f4f4f4" fill-rule="evenodd"></path><path id="path2" d="M205.614 18.911 C 205.980 19.007,206.579 19.007,206.946 18.911 C 207.312 18.816,207.012 18.737,206.280 18.737 C 205.547 18.737,205.247 18.816,205.614 18.911 M284.301 52.712 C 285.011 53.444,285.677 54.044,285.782 54.044 C 285.887 54.044,285.391 53.444,284.681 52.712 C 283.971 51.979,283.305 51.380,283.200 51.380 C 283.095 51.380,283.591 51.979,284.301 52.712 M289.058 57.469 C 290.089 58.516,291.018 59.372,291.123 59.372 C 291.227 59.372,290.470 58.516,289.439 57.469 C 288.408 56.422,287.479 55.566,287.374 55.566 C 287.269 55.566,288.027 56.422,289.058 57.469 M192.868 84.760 C 193.342 84.851,194.027 84.848,194.391 84.752 C 194.755 84.657,194.367 84.583,193.530 84.587 C 192.693 84.591,192.395 84.669,192.868 84.760 M203.525 84.760 C 203.998 84.851,204.683 84.848,205.047 84.752 C 205.411 84.657,205.024 84.583,204.186 84.587 C 203.349 84.591,203.051 84.669,203.525 84.760 M156.422 102.188 C 155.498 103.130,154.827 103.901,154.932 103.901 C 155.037 103.901,155.879 103.130,156.803 102.188 C 157.728 101.246,158.398 100.476,158.294 100.476 C 158.189 100.476,157.347 101.246,156.422 102.188 M323.597 128.449 C 323.602 129.286,323.680 129.584,323.771 129.111 C 323.862 128.637,323.858 127.952,323.763 127.588 C 323.668 127.224,323.593 127.612,323.597 128.449 M76.227 129.591 C 76.230 130.637,76.304 131.020,76.391 130.442 C 76.479 129.863,76.476 129.007,76.386 128.539 C 76.296 128.071,76.224 128.544,76.227 129.591 M324.021 136.441 C 324.022 138.535,324.086 139.342,324.163 138.237 C 324.240 137.131,324.239 135.418,324.161 134.431 C 324.083 133.443,324.020 134.348,324.021 136.441 M75.894 140.057 C 75.894 143.720,75.951 145.219,76.021 143.387 C 76.091 141.556,76.091 138.559,76.021 136.727 C 75.951 134.895,75.894 136.394,75.894 140.057 M139.011 140.247 C 139.016 141.085,139.093 141.382,139.184 140.909 C 139.276 140.436,139.272 139.750,139.177 139.387 C 139.082 139.023,139.007 139.410,139.011 140.247 M138.668 146.147 C 138.668 147.926,138.733 148.654,138.813 147.764 C 138.894 146.874,138.894 145.419,138.813 144.529 C 138.733 143.639,138.668 144.367,138.668 146.147 M323.619 145.956 C 323.621 147.212,323.693 147.680,323.777 146.996 C 323.862 146.312,323.860 145.284,323.773 144.712 C 323.687 144.141,323.617 144.700,323.619 145.956 M323.209 149.952 C 323.209 150.685,323.287 150.985,323.383 150.618 C 323.479 150.252,323.479 149.653,323.383 149.286 C 323.287 148.920,323.209 149.220,323.209 149.952 M139.011 151.665 C 139.016 152.502,139.093 152.800,139.184 152.327 C 139.276 151.853,139.272 151.168,139.177 150.804 C 139.082 150.440,139.007 150.828,139.011 151.665 M76.243 156.613 C 76.245 158.078,76.313 158.631,76.396 157.841 C 76.478 157.052,76.477 155.853,76.393 155.177 C 76.309 154.501,76.241 155.147,76.243 156.613 M156.613 189.914 C 157.430 190.752,158.185 191.437,158.290 191.437 C 158.394 191.437,157.811 190.752,156.993 189.914 C 156.176 189.077,155.421 188.392,155.317 188.392 C 155.212 188.392,155.795 189.077,156.613 189.914 M92.103 213.657 C 92.103 214.065,93.235 216.175,93.454 216.175 C 93.559 216.175,93.362 215.618,93.016 214.938 C 92.309 213.549,92.103 213.259,92.103 213.657 M260.324 285.442 C 259.876 286.070,259.596 286.584,259.701 286.584 C 259.805 286.584,260.257 286.070,260.704 285.442 C 261.151 284.814,261.431 284.301,261.327 284.301 C 261.222 284.301,260.771 284.814,260.324 285.442 M218.244 340.723 L 217.127 341.960 218.363 340.842 C 219.044 340.227,219.600 339.671,219.600 339.605 C 219.600 339.311,219.286 339.570,218.244 340.723 M184.570 345.671 C 186.147 347.351,186.489 347.653,186.489 347.368 C 186.489 347.306,185.676 346.493,184.681 345.560 L 182.873 343.863 184.570 345.671 M189.153 350.642 C 189.153 350.708,189.710 351.265,190.390 351.879 L 191.627 352.997 190.509 351.760 C 189.467 350.607,189.153 350.348,189.153 350.642 M194.672 356.613 C 195.489 357.450,196.244 358.135,196.349 358.135 C 196.453 358.135,195.870 357.450,195.052 356.613 C 194.235 355.775,193.480 355.090,193.375 355.090 C 193.271 355.090,193.854 355.775,194.672 356.613 " stroke="none" fill="#93c893" fill-rule="evenodd"></path><path id="path3" d="M198.197 84.380 C 198.670 84.471,199.355 84.467,199.719 84.372 C 200.083 84.277,199.696 84.202,198.858 84.206 C 198.021 84.211,197.723 84.289,198.197 84.380 M198.192 207.690 C 198.663 207.781,199.434 207.781,199.905 207.690 C 200.376 207.599,199.990 207.525,199.049 207.525 C 198.107 207.525,197.721 207.599,198.192 207.690 " stroke="none" fill="#74be74" fill-rule="evenodd"></path><path id="path4" d="M193.435 18.922 C 194.010 19.009,194.952 19.009,195.528 18.922 C 196.104 18.834,195.633 18.763,194.481 18.763 C 193.330 18.763,192.859 18.834,193.435 18.922 M201.998 18.918 C 202.469 19.008,203.240 19.008,203.711 18.918 C 204.182 18.827,203.796 18.753,202.854 18.753 C 201.912 18.753,201.527 18.827,201.998 18.918 M208.658 19.292 C 209.025 19.388,209.624 19.388,209.990 19.292 C 210.357 19.196,210.057 19.118,209.324 19.118 C 208.592 19.118,208.292 19.196,208.658 19.292 M116.627 49.572 L 115.509 50.809 116.746 49.691 C 117.899 48.649,118.158 48.335,117.864 48.335 C 117.798 48.335,117.242 48.892,116.627 49.572 M280.495 49.215 C 280.495 49.281,281.051 49.837,281.732 50.452 L 282.969 51.570 281.851 50.333 C 280.809 49.180,280.495 48.921,280.495 49.215 M110.744 55.090 L 107.136 58.801 110.847 55.193 C 112.888 53.209,114.558 51.539,114.558 51.482 C 114.558 51.207,114.095 51.644,110.744 55.090 M293.815 62.988 C 294.526 63.720,295.192 64.320,295.297 64.320 C 295.401 64.320,294.906 63.720,294.196 62.988 C 293.486 62.255,292.819 61.656,292.715 61.656 C 292.610 61.656,293.105 62.255,293.815 62.988 M195.533 84.380 C 196.006 84.471,196.691 84.467,197.055 84.372 C 197.419 84.277,197.031 84.202,196.194 84.206 C 195.357 84.211,195.059 84.289,195.533 84.380 M200.861 84.380 C 201.334 84.471,202.019 84.467,202.383 84.372 C 202.747 84.277,202.360 84.202,201.522 84.206 C 200.685 84.211,200.387 84.289,200.861 84.380 M159.253 99.429 L 158.135 100.666 159.372 99.548 C 160.052 98.933,160.609 98.377,160.609 98.311 C 160.609 98.017,160.295 98.276,159.253 99.429 M242.245 103.140 C 243.276 104.186,244.205 105.043,244.310 105.043 C 244.415 105.043,243.657 104.186,242.626 103.140 C 241.595 102.093,240.666 101.237,240.561 101.237 C 240.457 101.237,241.215 102.093,242.245 103.140 M323.655 136.632 C 323.655 139.876,323.713 141.204,323.784 139.581 C 323.856 137.959,323.856 135.304,323.784 133.682 C 323.713 132.060,323.655 133.387,323.655 136.632 M76.236 134.158 C 76.238 135.414,76.309 135.882,76.394 135.198 C 76.479 134.514,76.477 133.486,76.390 132.914 C 76.303 132.342,76.234 132.902,76.236 134.158 M76.269 147.288 C 76.269 150.324,76.328 151.565,76.401 150.048 C 76.473 148.530,76.473 146.047,76.401 144.529 C 76.328 143.011,76.269 144.253,76.269 147.288 M259.312 145.956 C 259.314 147.631,259.380 148.269,259.461 147.373 C 259.541 146.478,259.540 145.108,259.458 144.329 C 259.377 143.549,259.311 144.282,259.312 145.956 M242.983 188.107 L 241.865 189.343 243.102 188.226 C 243.782 187.611,244.339 187.054,244.339 186.989 C 244.339 186.695,244.025 186.954,242.983 188.107 M158.325 191.556 C 158.325 191.621,158.882 192.178,159.562 192.793 L 160.799 193.911 159.681 192.674 C 158.639 191.521,158.325 191.262,158.325 191.556 M195.718 207.684 C 196.085 207.780,196.684 207.780,197.050 207.684 C 197.417 207.588,197.117 207.510,196.384 207.510 C 195.652 207.510,195.352 207.588,195.718 207.684 M201.241 207.691 C 201.715 207.782,202.400 207.778,202.764 207.683 C 203.128 207.588,202.740 207.513,201.903 207.517 C 201.066 207.522,200.768 207.600,201.241 207.691 M186.870 347.978 C 186.870 348.044,187.426 348.600,188.107 349.215 L 189.343 350.333 188.226 349.096 C 187.184 347.943,186.870 347.684,186.870 347.978 M193.324 354.805 C 194.901 356.485,195.243 356.787,195.243 356.502 C 195.243 356.441,194.429 355.627,193.435 354.694 L 191.627 352.997 193.324 354.805 " stroke="none" fill="#6cb96c" fill-rule="evenodd"></path></g></svg>